<?xml version="1.0" encoding="UTF-8"?>
<svg xmlns="http://www.w3.org/2000/svg" xmlns:xlink="http://www.w3.org/1999/xlink" width="300pt" height="299.999988pt" viewBox="0 0 300 299.999988" version="1.2">
<defs>
<clipPath id="clip1">
  <path d="M 163.28125 234.894531 L 177.476562 234.894531 L 177.476562 239.03125 L 163.28125 239.03125 Z M 163.28125 234.894531 "/>
</clipPath>
<clipPath id="clip2">
  <path d="M 191.105469 232.054688 L 207 232.054688 L 207 239 L 191.105469 239 Z M 191.105469 232.054688 "/>
</clipPath>
<clipPath id="clip3">
  <path d="M 139 235 L 154.761719 235 L 154.761719 239 L 139 239 Z M 139 235 "/>
</clipPath>
<clipPath id="clip4">
  <path d="M 130.34375 235 L 145.109375 235 L 145.109375 239 L 130.34375 239 Z M 130.34375 235 "/>
</clipPath>
<clipPath id="clip5">
  <path d="M 213.253906 118.472656 L 246.222656 118.472656 L 246.222656 163.90625 L 213.253906 163.90625 Z M 213.253906 118.472656 "/>
</clipPath>
<clipPath id="clip6">
  <path d="M 53.117188 62 L 92 62 L 92 95 L 53.117188 95 Z M 53.117188 62 "/>
</clipPath>
</defs>
<g id="surface1">
<rect x="0" y="0" width="300" height="299.999988" style="fill:rgb(100%,100%,100%);fill-opacity:1;stroke:none;"/>
<rect x="0" y="0" width="300" height="299.999988" style="fill:rgb(100%,100%,100%);fill-opacity:1;stroke:none;"/>
<rect x="0" y="0" width="300" height="299.999988" style="fill:rgb(12.939453%,58.81958%,95.289612%);fill-opacity:1;stroke:none;"/>
<path style=" stroke:none;fill-rule:nonzero;fill:rgb(79.998779%,93.728638%,90.979004%);fill-opacity:1;" d="M 77.171875 58 C 78.929688 42.621094 94.253906 41.90625 94.253906 41.90625 C 128.535156 40.148438 126.402344 62.53125 116.464844 75.921875 L 116.777344 87.214844 L 111.957031 80.882812 C 109.304688 83.238281 106.449219 84.882812 103.734375 85.402344 C 87.578125 88.503906 75.414062 73.378906 77.171875 58 "/>
<path style=" stroke:none;fill-rule:nonzero;fill:rgb(94.898987%,58.428955%,47.44873%);fill-opacity:1;" d="M 122.699219 67.261719 C 125.652344 60.9375 169.226562 64.101562 169.925781 65.152344 C 172.457031 68.949219 171.613281 86.847656 168.664062 89.375 C 167.128906 90.6875 155.507812 91.160156 144.257812 90.859375 L 140.410156 98.230469 L 139.035156 90.664062 C 130.675781 90.246094 123.507812 89.386719 122.28125 88.113281 C 119.210938 84.914062 119.75 73.585938 122.699219 67.261719 "/>
<path style=" stroke:none;fill-rule:nonzero;fill:rgb(96.859741%,73.728943%,66.668701%);fill-opacity:1;" d="M 126.992188 196.410156 L 119.191406 237.605469 L 116.449219 237.824219 C 116.449219 237.824219 112.867188 207.644531 114.972656 195.75 C 118.980469 193.984375 126.992188 196.410156 126.992188 196.410156 "/>
<path style=" stroke:none;fill-rule:nonzero;fill:rgb(96.859741%,73.728943%,66.668701%);fill-opacity:1;" d="M 118.347656 188.257812 C 118.347656 188.257812 118.347656 199.050781 118.558594 201.917969 C 117.503906 206.984375 105.59375 236.613281 105.59375 236.613281 L 103.378906 237.605469 C 103.378906 237.605469 102.113281 210.363281 106.539062 199.203125 C 111.597656 192.886719 118.347656 188.257812 118.347656 188.257812 "/>
<path style=" stroke:none;fill-rule:nonzero;fill:rgb(23.919678%,20.779419%,25.878906%);fill-opacity:1;" d="M 120.03125 233.089844 C 121.367188 235.953125 127.03125 236.347656 126.882812 238.160156 C 126.644531 238.835938 116.957031 238.425781 116.546875 238.199219 C 115.734375 237.746094 116.027344 233.640625 116.027344 233.640625 C 116.027344 233.640625 118.664062 234.523438 120.03125 233.089844 "/>
<path style=" stroke:none;fill-rule:nonzero;fill:rgb(23.919678%,20.779419%,25.878906%);fill-opacity:1;" d="M 106.855469 233.640625 C 106.855469 233.640625 110.902344 236.070312 113.707031 236.394531 C 116.515625 236.722656 114.851562 237.9375 113.605469 238.265625 C 112.355469 238.589844 101.558594 238.441406 101.269531 237.824219 C 100.710938 236.648438 103.425781 233.207031 103.425781 233.207031 L 106.855469 233.640625 "/>
<path style=" stroke:none;fill-rule:nonzero;fill:rgb(25.878906%,45.878601%,42.749023%);fill-opacity:1;" d="M 106.539062 199.203125 C 102.746094 182.164062 103.082031 171.136719 105.441406 162.242188 C 107.539062 162.484375 109.503906 163.046875 111.296875 163.753906 C 111.167969 162.617188 111.097656 161.964844 111.097656 161.964844 L 127.6875 160.039062 C 127.6875 160.039062 133.808594 174.140625 126.921875 197.9375 C 121.277344 199.554688 114.433594 199.925781 106.539062 199.203125 "/>
<path style=" stroke:none;fill-rule:nonzero;fill:rgb(58.039856%,24.308777%,21.958923%);fill-opacity:1;" d="M 174.167969 165.214844 C 184.171875 166.933594 189.535156 167.21875 199.859375 167.09375 C 199.386719 176.894531 199.667969 189.097656 196.945312 197.25 C 198.546875 202.472656 199.742188 224.167969 196.148438 235.730469 C 195.75 236.105469 193.75 235.542969 193.75 235.542969 C 193.75 235.542969 190.550781 206.203125 187.957031 200.421875 C 185.355469 194.636719 184.824219 178.703125 184.824219 178.703125 C 184.824219 178.703125 184.671875 184.953125 176.453125 200.777344 C 179.316406 207.035156 180.640625 215.351562 175.761719 236.476562 C 175.160156 236.664062 172.902344 236.414062 172.902344 236.414062 C 172.902344 236.414062 170.746094 210.199219 168.765625 200.421875 C 169.445312 193.101562 171.808594 176.351562 174.167969 165.214844 "/>
<path style=" stroke:none;fill-rule:nonzero;fill:rgb(23.919678%,20.779419%,25.878906%);fill-opacity:1;" d="M 196.53125 234.191406 C 197.703125 236.601562 200.9375 236.953125 200.8125 238.472656 C 200.601562 239.046875 193.75 238.855469 193.390625 238.664062 C 192.675781 238.28125 193.625 234.675781 193.625 234.675781 C 193.625 234.675781 195.769531 235.8125 196.53125 234.191406 "/>
<g clip-path="url(#clip1)" clip-rule="nonzero">
<path style=" stroke:none;fill-rule:nonzero;fill:rgb(23.919678%,20.779419%,25.878906%);fill-opacity:1;" d="M 176.054688 234.90625 C 176.054688 234.90625 177.617188 238.617188 177.003906 238.855469 C 176.386719 239.09375 164.449219 239.175781 163.609375 238.570312 C 162.15625 237.523438 168.183594 236.855469 169.078125 236.664062 C 169.972656 236.476562 172.742188 235.097656 172.742188 235.097656 C 172.742188 235.097656 175.328125 235.714844 176.054688 234.90625 "/>
</g>
<path style=" stroke:none;fill-rule:nonzero;fill:rgb(58.039856%,24.308777%,21.958923%);fill-opacity:1;" d="M 189.113281 178.921875 C 189.113281 178.921875 180.253906 198.050781 174.730469 201.050781 C 180.410156 181.007812 183.429688 171.347656 189.113281 178.921875 "/>
<path style=" stroke:none;fill-rule:nonzero;fill:rgb(100%,100%,100%);fill-opacity:1;" d="M 106.320312 165.117188 C 106.320312 165.117188 108.847656 165.367188 112.484375 165.351562 C 114.339844 165.34375 116.488281 165.257812 118.738281 165.027344 C 120.539062 164.859375 122.40625 164.59375 124.242188 164.195312 C 124.425781 156.394531 124.230469 149.335938 123.871094 143.273438 C 123.613281 138.90625 123.269531 135.058594 122.914062 131.820312 L 122.914062 131.78125 C 122.339844 126.597656 121.75 122.996094 121.472656 121.378906 C 121.296875 121.308594 121.121094 121.226562 120.925781 121.140625 C 119.589844 120.570312 117.992188 120.050781 116.304688 119.832031 C 115.105469 119.664062 113.859375 119.65625 112.613281 119.878906 C 112.429688 119.914062 112.246094 119.953125 112.058594 119.988281 C 111.894531 120.035156 111.738281 120.082031 111.570312 120.128906 L 110.214844 131.746094 L 109.363281 138.992188 L 106.320312 165.117188 "/>
<path style=" stroke:none;fill-rule:nonzero;fill:rgb(94.898987%,58.428955%,47.44873%);fill-opacity:1;" d="M 102.007812 171.082031 C 104.425781 173.691406 109.339844 173.609375 111.210938 170.195312 C 111.835938 169.050781 112.246094 167.398438 112.484375 165.351562 C 113.5 156.820312 111.714844 141.546875 111.863281 128.792969 C 111.894531 126.238281 112.003906 123.773438 112.226562 121.484375 C 112.234375 121.308594 112.253906 121.140625 112.269531 120.976562 C 112.246094 120.550781 112.167969 120.226562 112.058594 119.988281 C 111.894531 120.035156 111.738281 120.082031 111.570312 120.128906 C 109.917969 120.605469 108.3125 121.546875 106.855469 123.152344 C 106.84375 123.144531 106.84375 123.144531 106.84375 123.136719 C 106.816406 123.179688 106.789062 123.226562 106.761719 123.273438 C 105.222656 125.792969 103.570312 130.019531 102.949219 136.847656 C 102.683594 139.847656 102.617188 143.355469 102.859375 147.445312 C 102.886719 147.886719 102.914062 148.347656 102.949219 148.8125 C 103.734375 159.644531 98.898438 167.710938 102.007812 171.082031 "/>
<path style=" stroke:none;fill-rule:nonzero;fill:rgb(94.898987%,58.428955%,47.44873%);fill-opacity:1;" d="M 118.738281 165.027344 C 118.925781 167.382812 119.25 169.179688 119.742188 170.195312 C 121.730469 174.226562 129.945312 173.5625 131.898438 170.5 C 133.859375 167.445312 134.355469 163.089844 133.957031 158.1875 C 132.941406 145.351562 125.8125 128.765625 122.664062 121.964844 C 122.421875 121.84375 122.171875 121.714844 121.90625 121.585938 C 121.765625 121.519531 121.621094 121.453125 121.472656 121.378906 C 121.296875 121.308594 121.121094 121.226562 120.925781 121.140625 C 120.152344 128.773438 117.816406 153.472656 118.738281 165.027344 "/>
<path style=" stroke:none;fill-rule:nonzero;fill:rgb(94.898987%,58.428955%,47.44873%);fill-opacity:1;" d="M 122.351562 141.308594 C 122.855469 141.941406 123.363281 142.597656 123.871094 143.273438 C 127.402344 147.921875 130.960938 153.34375 133.957031 158.1875 C 138.570312 165.617188 141.894531 171.71875 141.894531 171.71875 C 141.894531 171.71875 141.894531 171.71875 143.464844 170.675781 C 139.773438 140.984375 129.90625 128.054688 124.859375 123.253906 C 124.859375 123.265625 124.859375 123.273438 124.847656 123.28125 C 124.847656 123.28125 124.015625 122.675781 122.664062 121.964844 C 122.421875 121.84375 122.171875 121.714844 121.90625 121.585938 C 122.15625 123.265625 122.707031 127.472656 122.914062 131.78125 L 122.914062 131.820312 C 123.078125 135.363281 123.015625 138.972656 122.351562 141.308594 "/>
<path style=" stroke:none;fill-rule:nonzero;fill:rgb(94.898987%,58.428955%,47.44873%);fill-opacity:1;" d="M 99.074219 139.648438 C 99.074219 139.648438 100.78125 149.761719 102.949219 148.8125 C 104.34375 148.191406 105.921875 135.980469 107.351562 136.828125 C 108.074219 137.246094 108.753906 137.9375 109.363281 138.992188 C 109.761719 139.671875 110.121094 140.496094 110.433594 141.492188 C 110.304688 137.484375 110.464844 133.878906 110.757812 130.765625 C 111.125 126.835938 111.714844 123.679688 112.226562 121.484375 C 112.363281 120.875 112.5 120.339844 112.613281 119.878906 C 112.429688 119.914062 112.246094 119.953125 112.058594 119.988281 C 111.894531 120.035156 111.738281 120.082031 111.570312 120.128906 C 109.917969 120.605469 108.3125 121.554688 106.855469 123.160156 C 106.84375 123.152344 106.84375 123.144531 106.84375 123.136719 C 106.808594 123.070312 106.871094 123.226562 106.855469 123.160156 C 101.75 129.605469 99.230469 139.019531 99.085938 139.617188 C 99.074219 139.636719 99.074219 139.648438 99.074219 139.648438 "/>
<path style=" stroke:none;fill-rule:nonzero;fill:rgb(96.859741%,73.728943%,66.668701%);fill-opacity:1;" d="M 120.410156 111.117188 C 123.140625 112.140625 124.394531 122.324219 121.015625 123.515625 C 114.921875 125.660156 111.222656 117.429688 111.222656 117.429688 C 111.222656 117.429688 108.929688 106.808594 120.410156 111.117188 "/>
<path style=" stroke:none;fill-rule:nonzero;fill:rgb(92.939758%,41.569519%,39.99939%);fill-opacity:1;" d="M 112.660156 107.003906 C 112.660156 106.089844 113.71875 104.898438 116.144531 104.765625 C 118.539062 104.632812 119.214844 106.59375 119.265625 107.40625 C 122.011719 107.257812 122.984375 108.582031 123.691406 109.492188 C 124.40625 110.414062 125.265625 113.515625 122.828125 114.632812 C 122.828125 114.632812 122.777344 114.648438 122.691406 114.683594 C 122.414062 114.777344 122.144531 114.84375 121.875 114.863281 C 121.824219 114.863281 121.769531 114.871094 121.703125 114.878906 C 120.234375 115.050781 117.550781 114.851562 115.140625 111.949219 C 116.621094 117.46875 114.902344 128.027344 113.242188 127.648438 C 109.628906 126.828125 106.792969 123.882812 106.1875 121.816406 C 104.472656 115.980469 107.316406 105.320312 112.660156 107.003906 "/>
<path style=" stroke:none;fill-rule:nonzero;fill:rgb(96.859741%,73.728943%,66.668701%);fill-opacity:1;" d="M 201.039062 232.859375 L 199.824219 227.753906 L 204.386719 226.914062 L 204.976562 232.320312 L 201.039062 232.859375 "/>
<path style=" stroke:none;fill-rule:nonzero;fill:rgb(96.859741%,73.728943%,66.668701%);fill-opacity:1;" d="M 223.488281 232.746094 L 222.652344 225.6875 L 227.835938 225.03125 L 227.457031 232.503906 L 223.488281 232.746094 "/>
<g clip-path="url(#clip2)" clip-rule="nonzero">
<path style=" stroke:none;fill-rule:nonzero;fill:rgb(23.919678%,20.779419%,25.878906%);fill-opacity:1;" d="M 206.359375 238.847656 C 206.359375 238.847656 191.433594 239.445312 191.433594 237.925781 C 191.433594 236.773438 199.253906 234.785156 199.785156 234.277344 C 201.574219 232.542969 201.039062 232.859375 201.039062 232.859375 L 204.976562 232.320312 C 204.976562 232.320312 207.519531 237.089844 206.359375 238.847656 "/>
</g>
<path style=" stroke:none;fill-rule:nonzero;fill:rgb(23.919678%,20.779419%,25.878906%);fill-opacity:1;" d="M 228.402344 238.414062 C 228.402344 238.414062 213.785156 239.382812 213.53125 238.007812 C 213.320312 236.871094 221.582031 234.53125 222.144531 234.058594 C 224.042969 232.46875 223.488281 232.746094 223.488281 232.746094 L 227.457031 232.503906 C 227.457031 232.503906 229.679688 236.75 228.402344 238.414062 "/>
<path style=" stroke:none;fill-rule:nonzero;fill:rgb(94.898987%,58.428955%,47.44873%);fill-opacity:1;" d="M 200.039062 178.425781 C 200.039062 178.425781 195.429688 191.40625 195.257812 200.960938 C 194.980469 215.949219 197.855469 226.945312 198.417969 229.246094 C 199.914062 230.179688 206.492188 228.875 206.492188 228.875 C 206.492188 228.875 205.476562 215.851562 207.375 203.957031 C 208.949219 194.085938 213.398438 187.429688 214.289062 187.605469 C 216.804688 188.097656 217.394531 212.519531 219.121094 227.859375 C 220.058594 228.59375 227.773438 227.964844 227.773438 227.964844 C 227.773438 227.964844 229.769531 186.21875 227.710938 171.4375 C 225.085938 165.046875 219.660156 164.664062 219.660156 164.664062 L 203.800781 166.53125 L 200.039062 178.425781 "/>
<path style=" stroke:none;fill-rule:nonzero;fill:rgb(55.688477%,67.449951%,65.098572%);fill-opacity:1;" d="M 170.941406 175.941406 C 162.855469 150.167969 170.441406 134.542969 172.195312 130.78125 L 172.195312 130.769531 L 172.203125 130.757812 C 174.042969 126.824219 175.742188 125.996094 175.742188 125.996094 L 175.734375 126.011719 C 175.738281 126.011719 175.738281 126.011719 175.742188 126.011719 C 175.894531 125.894531 176.050781 125.800781 176.214844 125.695312 C 177.445312 124.90625 178.765625 124.25 180.160156 123.695312 C 181.179688 123.296875 182.265625 122.953125 183.375 122.699219 C 185.820312 122.136719 186.632812 122.027344 186.632812 122.027344 C 186.632812 122.027344 187.179688 122.03125 188.121094 122.101562 C 188.277344 122.113281 188.457031 122.128906 188.628906 122.152344 C 188.640625 122.140625 188.660156 122.15625 188.679688 122.144531 C 190.097656 122.359375 191.949219 122.914062 192.964844 123.367188 C 194.261719 123.9375 195.757812 124.726562 197.289062 125.832031 C 197.765625 126.164062 198.238281 126.535156 198.710938 126.933594 L 198.710938 126.925781 C 198.722656 126.941406 198.738281 126.949219 198.75 126.960938 C 204.117188 131.472656 211.082031 140.960938 211.78125 156.96875 C 211.894531 159.628906 202.152344 170.640625 201.34375 174.742188 C 190.054688 177.703125 182.628906 174.570312 178.324219 171.683594 C 178.152344 174.160156 172.074219 179.566406 170.941406 175.941406 "/>
<path style=" stroke:none;fill-rule:nonzero;fill:rgb(96.859741%,73.728943%,66.668701%);fill-opacity:1;" d="M 186.980469 124.082031 C 186.980469 124.082031 190.847656 123.753906 190.632812 126.1875 C 190.410156 128.625 188.042969 131.402344 185.460938 131.675781 C 182.886719 131.953125 180.566406 127.308594 180.984375 125.832031 C 181.40625 124.359375 186.980469 124.082031 186.980469 124.082031 "/>
<path style=" stroke:none;fill-rule:nonzero;fill:rgb(96.859741%,73.728943%,66.668701%);fill-opacity:1;" d="M 186.949219 118.902344 C 186.949219 118.902344 188.5625 104.59375 181.734375 106.519531 C 174.90625 108.445312 173.308594 113.800781 175.320312 117.980469 C 177.332031 122.164062 183.15625 120.488281 183.15625 120.488281 L 186.949219 118.902344 "/>
<path style=" stroke:none;fill-rule:nonzero;fill:rgb(25.878906%,45.878601%,42.749023%);fill-opacity:1;" d="M 186.949219 118.902344 C 186.949219 118.902344 193.875 117.011719 189.605469 113.101562 C 190.757812 109.8125 192.742188 105.84375 188.402344 105.382812 C 186.785156 102.867188 181.816406 97.691406 180.054688 101.867188 C 177.453125 101.546875 172.464844 97.242188 172.691406 102.414062 C 172.914062 107.582031 171.847656 111.5 174.886719 112.015625 C 178.546875 111.855469 185.765625 113.847656 186.949219 118.902344 "/>
<path style=" stroke:none;fill-rule:nonzero;fill:rgb(95.289612%,73.329163%,66.668701%);fill-opacity:1;" d="M 180.785156 113.699219 C 180.785156 113.699219 185.527344 108.636719 183.75 114.867188 C 182.269531 115.578125 180.785156 113.699219 180.785156 113.699219 "/>
<path style=" stroke:none;fill-rule:nonzero;fill:rgb(95.289612%,73.329163%,66.668701%);fill-opacity:1;" d="M 186.949219 118.902344 C 186.949219 118.902344 188.089844 125.164062 188.027344 126.460938 C 188.054688 127.046875 181.363281 128.644531 180.539062 120.683594 C 181.769531 119.210938 186.949219 118.902344 186.949219 118.902344 "/>
<path style=" stroke:none;fill-rule:nonzero;fill:rgb(95.289612%,73.329163%,66.668701%);fill-opacity:1;" d="M 158.828125 143.519531 C 158.828125 143.519531 161.804688 149.882812 162.285156 153.007812 C 164.570312 147.601562 169.046875 145.367188 171.75 141.460938 C 172.074219 140.988281 174.070312 139.257812 174.953125 139.164062 C 175.898438 139.0625 175.75 140.613281 176.707031 140.511719 C 178.832031 140.28125 183.492188 137.898438 183.300781 138.972656 C 182.261719 144.863281 173.824219 143.394531 173.824219 143.394531 C 173.824219 143.394531 167.050781 164.519531 161.085938 164.308594 C 155.121094 164.09375 150.507812 153.972656 150.507812 153.972656 L 158.828125 143.519531 "/>
<path style=" stroke:none;fill-rule:nonzero;fill:rgb(23.919678%,20.779419%,25.878906%);fill-opacity:1;" d="M 143.277344 235.289062 L 140.835938 235.289062 C 138.9375 230.617188 133.140625 213.824219 140.261719 205.675781 C 139.851562 203.785156 128.296875 175.550781 132.1875 167.648438 C 136.078125 159.746094 146.015625 151.28125 152.746094 165.214844 C 152.746094 165.214844 155.6875 181.046875 146.605469 208.601562 C 145.058594 211.308594 142.5 233.792969 143.277344 235.289062 "/>
<path style=" stroke:none;fill-rule:nonzero;fill:rgb(23.919678%,20.779419%,25.878906%);fill-opacity:1;" d="M 134.988281 235.53125 C 134.988281 235.53125 134.984375 235.53125 134.988281 235.53125 L 132.09375 235.46875 C 131.019531 231.089844 126.539062 212.703125 135 205.402344 C 134.859375 203.476562 127.398438 173.894531 132.359375 166.617188 C 137.324219 159.339844 148.351562 152.359375 153.054688 167.097656 C 153.054688 167.097656 153.738281 183.191406 140.871094 209.191406 C 138.929688 211.703125 133.808594 232.511719 134.988281 235.53125 "/>
<path style=" stroke:none;fill-rule:nonzero;fill:rgb(79.998779%,93.728638%,90.979004%);fill-opacity:1;" d="M 156.167969 174.964844 C 156 175.492188 155.402344 176.214844 154.457031 176.964844 C 153.566406 177.671875 152.367188 178.40625 150.925781 179.027344 C 149.402344 179.691406 147.609375 180.230469 145.640625 180.46875 C 141.105469 181.046875 135.632812 180.070312 130.28125 175.558594 C 130.191406 175.226562 130.09375 174.886719 130 174.527344 C 129.785156 173.632812 129.589844 172.652344 129.417969 171.605469 C 128.84375 168.09375 128.582031 163.804688 128.660156 159.269531 C 128.8125 151.070312 130 142.039062 132.882812 135.492188 C 140.226562 128.566406 146.863281 125.203125 148.679688 125.371094 C 152.53125 125.730469 156.191406 130.480469 157.636719 136.058594 C 157.648438 136.0625 157.648438 136.0625 157.636719 136.070312 C 158.238281 138.355469 158.621094 140.890625 158.828125 143.519531 C 158.867188 143.980469 158.902344 144.441406 158.921875 144.910156 C 159.699219 158.1875 156.621094 173.539062 156.167969 174.964844 "/>
<path style=" stroke:none;fill-rule:nonzero;fill:rgb(95.289612%,73.329163%,66.668701%);fill-opacity:1;" d="M 148.175781 145.152344 C 148.175781 145.152344 157.160156 138.511719 155.808594 142.734375 C 154.457031 146.960938 153.765625 148.433594 149.632812 147.585938 C 147.074219 147.0625 148.175781 145.152344 148.175781 145.152344 "/>
<path style=" stroke:none;fill-rule:nonzero;fill:rgb(95.289612%,73.329163%,66.668701%);fill-opacity:1;" d="M 149.632812 147.5 C 142.707031 161.007812 124.933594 161.644531 121.929688 155.945312 C 118.636719 149.703125 126.300781 141.109375 133.421875 135.015625 C 134.183594 137.277344 136.179688 142.554688 141.585938 145.023438 C 139.28125 146.972656 136.535156 148.886719 133.324219 150.664062 C 138.773438 151.554688 148.453125 144.960938 148.453125 144.960938 C 148.453125 144.960938 149.757812 147.367188 149.632812 147.5 "/>
<g clip-path="url(#clip3)" clip-rule="nonzero">
<path style=" stroke:none;fill-rule:nonzero;fill:rgb(91.369629%,34.899902%,33.329773%);fill-opacity:1;" d="M 140.746094 235.019531 C 140.746094 235.019531 138.59375 238.265625 139.085938 238.492188 C 139.582031 238.714844 153.699219 239.320312 154.375 238.746094 C 155.546875 237.757812 146.871094 236.242188 146.148438 236.0625 C 145.429688 235.882812 143.277344 235.289062 143.277344 235.289062 C 143.277344 235.289062 142.234375 235.199219 140.746094 235.019531 "/>
</g>
<g clip-path="url(#clip4)" clip-rule="nonzero">
<path style=" stroke:none;fill-rule:nonzero;fill:rgb(91.369629%,34.899902%,33.329773%);fill-opacity:1;" d="M 132.09375 235.46875 C 132.09375 235.46875 130.300781 238.507812 130.796875 238.730469 C 131.292969 238.957031 144.257812 239.148438 144.9375 238.574219 C 146.109375 237.582031 139.074219 236.847656 138.355469 236.667969 C 137.632812 236.488281 134.988281 235.53125 134.988281 235.53125 C 134.988281 235.53125 133.925781 235.394531 132.09375 235.46875 "/>
</g>
<path style=" stroke:none;fill-rule:nonzero;fill:rgb(95.289612%,73.329163%,66.668701%);fill-opacity:1;" d="M 145.273438 116.742188 C 145.273438 116.742188 145.796875 120.621094 148.109375 122.035156 C 150.417969 123.453125 148.441406 125.078125 148.554688 126.285156 C 148.652344 127.324219 149.390625 130.835938 151.773438 129.421875 C 154.160156 128.003906 153.570312 123.46875 154.464844 124.445312 C 154.742188 124.742188 156.605469 125.738281 157.449219 125.6875 C 158.519531 125.621094 161.375 122.308594 161.523438 121.515625 C 161.710938 120.488281 160.703125 118.109375 159.585938 116.945312 C 158.464844 115.773438 145.273438 116.148438 145.273438 116.742188 "/>
<path style=" stroke:none;fill-rule:nonzero;fill:rgb(95.289612%,73.329163%,66.668701%);fill-opacity:1;" d="M 159.585938 116.945312 C 159.585938 116.945312 160.929688 114.742188 160.875 114.160156 C 160.875 114.160156 143.585938 102.535156 145.273438 116.742188 C 148.949219 118.433594 159.585938 116.945312 159.585938 116.945312 "/>
<path style=" stroke:none;fill-rule:nonzero;fill:rgb(23.919678%,20.779419%,25.878906%);fill-opacity:1;" d="M 147.261719 121.214844 C 147.261719 121.214844 141.054688 118.332031 143.636719 111.574219 C 144.203125 110.097656 149.101562 108.09375 153.1875 107.121094 C 155.632812 106.53125 155.613281 103.824219 158.542969 106.804688 C 161.992188 110.316406 160.875 114.160156 160.875 114.160156 L 155.808594 113.261719 C 155.808594 113.261719 152.230469 117.4375 147.261719 121.214844 "/>
<path style=" stroke:none;fill-rule:nonzero;fill:rgb(95.289612%,73.329163%,66.668701%);fill-opacity:1;" d="M 153.523438 116.046875 C 153.523438 116.046875 149.449219 113.367188 151.234375 118.234375 C 153.125 118.234375 153.523438 116.046875 153.523438 116.046875 "/>
<g clip-path="url(#clip5)" clip-rule="nonzero">
<path style=" stroke:none;fill-rule:nonzero;fill:rgb(92.939758%,41.569519%,39.99939%);fill-opacity:1;" d="M 217.886719 120.273438 C 217.886719 120.273438 221.242188 120.792969 223.304688 122.832031 C 225.371094 124.867188 224.320312 126.152344 225.027344 127.371094 C 225.734375 128.585938 229.5625 126.984375 231.925781 129.148438 C 234.292969 131.316406 232.421875 134.234375 234.15625 136.328125 C 235.894531 138.421875 240.003906 136.609375 242.726562 140.375 C 254.683594 156.890625 232.730469 168.183594 225.027344 162.230469 C 219.371094 157.863281 211.863281 126.816406 213.957031 121.261719 C 216.054688 115.707031 217.886719 120.273438 217.886719 120.273438 "/>
</g>
<path style=" stroke:none;fill-rule:nonzero;fill:rgb(29.019165%,49.409485%,100%);fill-opacity:1;" d="M 221.648438 184.441406 C 218.140625 175.503906 217.691406 168.910156 217.691406 168.910156 L 225.78125 168.910156 C 225.78125 168.910156 226.21875 177.152344 226.328125 184.441406 L 221.648438 184.441406 "/>
<path style=" stroke:none;fill-rule:nonzero;fill:rgb(95.289612%,49.01886%,34.899902%);fill-opacity:1;" d="M 197.511719 184.441406 C 197.308594 178.40625 197.371094 173.363281 197.359375 169.808594 L 199.800781 169.546875 L 218.820312 167.449219 C 218.820312 167.449219 222.074219 175.3125 225.21875 182.5 C 225.378906 183.121094 225.527344 183.773438 225.664062 184.441406 L 197.511719 184.441406 "/>
<path style=" stroke:none;fill-rule:nonzero;fill:rgb(25.878906%,45.878601%,42.749023%);fill-opacity:1;" d="M 228.964844 190.976562 C 226.730469 194.683594 198.199219 191.84375 197.203125 188.578125 C 196.488281 183.035156 195.003906 165.917969 195.535156 160.597656 C 198.15625 133.964844 205 133.035156 205 133.035156 C 205 133.035156 207.519531 133.210938 207.726562 132.476562 C 236.003906 130.882812 231.113281 170.492188 231.113281 170.492188 C 231.113281 170.492188 230.746094 185.375 228.964844 190.976562 "/>
<path style=" stroke:none;fill-rule:nonzero;fill:rgb(96.859741%,73.728943%,66.668701%);fill-opacity:1;" d="M 209.015625 155.46875 C 213.136719 154.269531 219.21875 163.351562 227.824219 159.039062 C 226.808594 157.945312 225.6875 156.488281 224.566406 154.871094 C 225.128906 154.675781 225.695312 154.484375 226.273438 154.300781 C 229.148438 153.386719 231.859375 153.582031 234.714844 153.75 C 234.800781 154.136719 234.886719 154.527344 234.972656 154.925781 C 238.257812 170.496094 229.359375 175.71875 212.949219 161.367188 C 212.949219 161.367188 211.394531 160.683594 207.742188 161.003906 C 202.027344 162.226562 199.597656 158.214844 209.015625 155.46875 "/>
<path style=" stroke:none;fill-rule:nonzero;fill:rgb(25.878906%,45.878601%,42.749023%);fill-opacity:1;" d="M 219.96875 132.855469 C 219.96875 132.855469 231.421875 136.648438 234.972656 154.925781 C 233.636719 154.78125 229.105469 156.226562 226.855469 157.875 C 220.863281 154.730469 209.605469 141.871094 211.777344 138.128906 C 213.949219 134.382812 214.109375 128.679688 219.96875 132.855469 "/>
<path style=" stroke:none;fill-rule:nonzero;fill:rgb(100%,100%,100%);fill-opacity:1;" d="M 215.398438 128.214844 C 215.398438 128.214844 221.808594 129.011719 221.089844 133.277344 C 220.371094 137.535156 212.378906 138.074219 210.359375 137.84375 C 208.332031 137.613281 205.195312 136.75 204.207031 134.625 C 203.011719 132.058594 205.929688 126.691406 215.398438 128.214844 "/>
<path style=" stroke:none;fill-rule:nonzero;fill:rgb(95.289612%,73.329163%,66.668701%);fill-opacity:1;" d="M 209.003906 123.242188 C 209.003906 123.242188 206.816406 131.664062 212.019531 132.535156 C 214.109375 132.886719 215.003906 131.394531 215.1875 130.605469 C 215.726562 128.347656 213.824219 125.878906 214.628906 122.363281 C 211.882812 122.589844 209.003906 123.242188 209.003906 123.242188 "/>
<path style=" stroke:none;fill-rule:nonzero;fill:rgb(96.859741%,73.728943%,66.668701%);fill-opacity:1;" d="M 214.953125 121.386719 C 214.789062 122.105469 214.570312 123.476562 214.4375 124.152344 C 213.824219 127.347656 210.972656 127.375 207.417969 127.203125 C 200.179688 126.851562 201.425781 113.273438 210.449219 113.523438 C 213.515625 113.609375 215.847656 117.472656 214.953125 121.386719 "/>
<path style=" stroke:none;fill-rule:nonzero;fill:rgb(92.939758%,41.569519%,39.99939%);fill-opacity:1;" d="M 202.898438 119.984375 C 197.433594 112 209.683594 107.386719 211.960938 111.949219 C 221.511719 112.050781 222.566406 122.273438 214.4375 124.152344 C 215.605469 117.386719 211.664062 117.988281 211.574219 115.214844 C 209.625 119.816406 203.292969 120.5625 202.898438 119.984375 "/>
<path style=" stroke:none;fill-rule:nonzero;fill:rgb(96.859741%,73.728943%,66.668701%);fill-opacity:1;" d="M 213.71875 121.359375 C 214.351562 121.730469 215.257812 121.355469 215.742188 120.527344 C 216.226562 119.699219 216.105469 118.730469 215.476562 118.363281 C 214.84375 117.992188 213.941406 118.363281 213.453125 119.191406 C 212.972656 120.019531 213.089844 120.988281 213.71875 121.359375 "/>
<path style=" stroke:none;fill-rule:nonzero;fill:rgb(100%,100%,100%);fill-opacity:1;" d="M 98.433594 135.816406 C 98.433594 135.816406 102.300781 143.542969 102.605469 145.953125 C 102.953125 148.710938 108.824219 164.175781 104.882812 173.757812 L 102.605469 173.601562 C 102.605469 173.601562 100.027344 166.28125 98.964844 159.304688 C 97.472656 149.523438 97.722656 137.957031 98.433594 135.816406 "/>
<path style=" stroke:none;fill-rule:nonzero;fill:rgb(52.938843%,50.19989%,43.139648%);fill-opacity:1;" d="M 89.789062 234.011719 L 86.933594 234.011719 C 84.714844 228.363281 77.945312 209.738281 86.261719 199.882812 C 85.785156 197.601562 72.289062 163.453125 76.835938 153.894531 C 81.378906 144.339844 94.898438 153.765625 102.757812 170.617188 C 102.757812 170.617188 104.273438 170.101562 93.667969 203.421875 C 91.867188 206.695312 88.878906 232.203125 89.789062 234.011719 "/>
<path style=" stroke:none;fill-rule:nonzero;fill:rgb(52.938843%,50.19989%,43.139648%);fill-opacity:1;" d="M 100.820312 169.15625 L 80.324219 169.15625 C 80.3125 169.171875 80.300781 169.183594 80.292969 169.199219 C 75.40625 175.507812 78.273438 197.160156 78.210938 199.496094 C 67.511719 207.316406 70.722656 228.277344 71.453125 233.671875 L 74.808594 234.074219 C 73.789062 230.304688 82.03125 207.519531 84.585938 204.722656 C 93.503906 189.953125 98.273438 177.734375 100.820312 169.15625 "/>
<path style=" stroke:none;fill-rule:nonzero;fill:rgb(22.349548%,39.608765%,36.859131%);fill-opacity:1;" d="M 86.828125 233.6875 C 86.828125 233.6875 84.316406 237.609375 84.894531 237.882812 C 85.46875 238.15625 98.78125 238.4375 99.570312 237.742188 C 100.941406 236.542969 93.207031 235.59375 92.363281 235.375 C 91.523438 235.160156 89.789062 234.011719 89.789062 234.011719 C 89.789062 234.011719 88.566406 233.902344 86.828125 233.6875 "/>
<path style=" stroke:none;fill-rule:nonzero;fill:rgb(22.349548%,39.608765%,36.859131%);fill-opacity:1;" d="M 71.453125 233.671875 C 71.453125 233.671875 69.011719 237.121094 69.558594 237.449219 C 70.113281 237.777344 81.308594 238.96875 82.164062 238.355469 C 83.640625 237.296875 78.058594 235.980469 77.242188 235.683594 C 76.425781 235.382812 74.808594 234.074219 74.808594 234.074219 C 74.808594 234.074219 73.589844 233.789062 71.453125 233.671875 "/>
<path style=" stroke:none;fill-rule:nonzero;fill:rgb(55.688477%,67.449951%,65.098572%);fill-opacity:1;" d="M 75.953125 171.875 C 81.03125 178.933594 102.65625 176.082031 102.65625 175.675781 C 102.890625 173.609375 103.070312 171.597656 103.207031 169.617188 C 103.964844 158.683594 103.167969 149.273438 101.882812 141.777344 C 101.632812 140.320312 101.367188 138.9375 101.089844 137.625 C 95.476562 130.554688 91.183594 124.183594 90.507812 121.007812 C 90.3125 121.078125 90.117188 121.164062 89.921875 121.265625 C 89.171875 121.628906 88.371094 122.195312 87.429688 122.859375 C 73.9375 132.4375 72.113281 166.53125 75.953125 171.875 "/>
<path style=" stroke:none;fill-rule:nonzero;fill:rgb(100%,100%,100%);fill-opacity:1;" d="M 85.203125 127.085938 C 87.777344 125.070312 92.703125 127.679688 93.855469 134.851562 C 95.011719 142.019531 95.324219 154.75 95.324219 154.75 C 98.765625 159.089844 101.332031 164.84375 103.515625 171.246094 L 101.925781 172.945312 C 101.925781 172.945312 88.144531 160.679688 86.359375 156.65625 C 83.441406 150.089844 76.550781 133.855469 85.203125 127.085938 "/>
<path style=" stroke:none;fill-rule:nonzero;fill:rgb(100%,100%,100%);fill-opacity:1;" d="M 94.9375 145.273438 C 94.488281 142.769531 94.171875 136.816406 93.855469 134.851562 C 92.703125 127.679688 87.777344 125.070312 85.203125 127.085938 C 79.425781 131.601562 80.859375 141.101562 83.128906 148.363281 C 87.984375 147.894531 92.8125 146.6875 94.9375 145.273438 "/>
<path style=" stroke:none;fill-rule:nonzero;fill:rgb(96.859741%,73.728943%,66.668701%);fill-opacity:1;" d="M 103.035156 169.820312 C 103.035156 169.820312 107.261719 170.691406 105.480469 175.539062 C 102.773438 182.890625 101.023438 175.109375 101.316406 172.417969 C 103 171.296875 103.035156 169.820312 103.035156 169.820312 "/>
<path style=" stroke:none;fill-rule:nonzero;fill:rgb(100%,100%,100%);fill-opacity:1;" d="M 90.507812 121.007812 C 91.183594 124.183594 95.476562 130.554688 101.089844 137.625 C 101.089844 137.621094 101.089844 137.621094 101.089844 137.613281 C 98.980469 127.707031 96.25 122.121094 96.25 122.121094 C 96.25 122.121094 94.183594 119.644531 90.507812 121.007812 "/>
<path style=" stroke:none;fill-rule:nonzero;fill:rgb(96.859741%,73.728943%,66.668701%);fill-opacity:1;" d="M 87.023438 111.605469 C 87.023438 111.605469 88.113281 115.613281 90.667969 116.78125 C 93.222656 117.949219 91.449219 119.9375 91.738281 121.191406 C 91.988281 122.277344 95.652344 124.875 96.46875 124.128906 C 98.59375 122.183594 96.429688 117.527344 97.488281 118.433594 C 97.808594 118.707031 99.84375 119.496094 100.695312 119.320312 C 101.777344 119.105469 103.453125 114.746094 103.488281 113.886719 C 103.53125 112.78125 102.914062 110.890625 101.605469 109.816406 C 100.300781 108.742188 86.9375 110.976562 87.023438 111.605469 "/>
<path style=" stroke:none;fill-rule:nonzero;fill:rgb(95.289612%,73.329163%,66.668701%);fill-opacity:1;" d="M 101.605469 109.816406 C 101.605469 109.816406 103.03125 107.246094 102.515625 106.703125 C 101.285156 105.398438 83.25 96.871094 87.023438 111.605469 C 91.003906 112.871094 101.605469 109.816406 101.605469 109.816406 "/>
<path style=" stroke:none;fill-rule:nonzero;fill:rgb(23.919678%,20.779419%,25.878906%);fill-opacity:1;" d="M 89.691406 116.035156 C 89.691406 116.035156 82.921875 110.996094 84.574219 103.515625 C 85.152344 100.902344 98.730469 101.246094 100.917969 102.425781 C 105.132812 104.699219 104.335938 106.003906 102.378906 107.117188 C 100.503906 108.1875 97.230469 106.46875 97.230469 106.46875 C 97.230469 106.46875 94.195312 111.363281 89.691406 116.035156 "/>
<path style=" stroke:none;fill-rule:nonzero;fill:rgb(95.289612%,73.329163%,66.668701%);fill-opacity:1;" d="M 95.3125 109.71875 C 95.3125 109.71875 90.777344 107.460938 93.300781 112.339844 C 95.222656 112.078125 95.3125 109.71875 95.3125 109.71875 "/>
<path style=" stroke:none;fill-rule:nonzero;fill:rgb(55.688477%,67.449951%,65.098572%);fill-opacity:1;" d="M 90.507812 121.007812 C 91.183594 124.183594 95.476562 130.554688 101.089844 137.625 C 101.367188 138.9375 101.632812 140.320312 101.882812 141.777344 C 94.84375 135.550781 90.476562 125.898438 89.085938 121.730469 L 90.507812 121.007812 "/>
<path style=" stroke:none;fill-rule:nonzero;fill:rgb(72.938538%,69.018555%,59.609985%);fill-opacity:1;" d="M 184.996094 82.292969 C 183.761719 83.144531 184.996094 86.402344 187.308594 85.375 C 189.625 84.347656 188.335938 79.980469 184.996094 82.292969 "/>
<path style=" stroke:none;fill-rule:nonzero;fill:rgb(72.938538%,69.018555%,59.609985%);fill-opacity:1;" d="M 186.292969 76.15625 C 184.914062 77.363281 184.574219 79.597656 187.730469 80.457031 C 190.882812 81.316406 192.03125 77.585938 191.171875 76.15625 C 190.308594 74.71875 188.589844 74.144531 186.292969 76.15625 "/>
<path style=" stroke:none;fill-rule:nonzero;fill:rgb(72.938538%,69.018555%,59.609985%);fill-opacity:1;" d="M 193.125 42.195312 C 185.074219 42.410156 169.554688 49.832031 173.464844 60.96875 C 177.371094 72.101562 204.164062 79.9375 211.191406 73.324219 C 218.21875 66.714844 216.550781 41.5625 193.125 42.195312 "/>
<g clip-path="url(#clip6)" clip-rule="nonzero">
<path style=" stroke:none;fill-rule:nonzero;fill:rgb(96.859741%,73.728943%,66.668701%);fill-opacity:1;" d="M 85.164062 69.488281 C 83.988281 69.488281 82.886719 69.789062 81.925781 70.316406 C 82.195312 69.707031 82.351562 69.050781 82.351562 68.367188 C 82.351562 65.261719 79.332031 62.742188 75.605469 62.742188 C 72.699219 62.742188 70.230469 64.273438 69.28125 66.421875 C 68.148438 65.703125 66.738281 65.269531 65.203125 65.269531 C 61.476562 65.269531 58.457031 67.789062 58.457031 70.894531 C 58.457031 71.609375 58.625 72.292969 58.917969 72.925781 C 55.640625 73.308594 53.117188 75.648438 53.117188 78.484375 C 53.117188 81.589844 56.136719 84.109375 59.863281 84.109375 C 60.382812 84.109375 60.886719 84.050781 61.375 83.957031 C 61.933594 86.597656 64.691406 88.605469 68.011719 88.605469 C 69.214844 88.605469 70.339844 88.335938 71.3125 87.875 C 72.960938 90.269531 75.410156 93.460938 77.574219 94.792969 C 77.410156 93.992188 77.160156 90.539062 76.976562 87.71875 C 77.171875 87.730469 77.367188 87.761719 77.574219 87.761719 C 80.984375 87.761719 83.792969 85.652344 84.25 82.914062 C 84.546875 82.957031 84.851562 82.984375 85.164062 82.984375 C 88.886719 82.984375 91.910156 79.964844 91.910156 76.238281 C 91.910156 72.507812 88.886719 69.488281 85.164062 69.488281 "/>
</g>
<path style=" stroke:none;fill-rule:nonzero;fill:rgb(79.998779%,93.728638%,90.979004%);fill-opacity:1;" d="M 212.816406 58.304688 C 216.003906 55.886719 242.609375 60.050781 244.488281 63.441406 C 246.382812 66.855469 238.742188 93.511719 235.351562 95.394531 C 234.160156 96.054688 232.003906 96.074219 229.40625 95.699219 C 228.210938 97.992188 226.394531 101.199219 225.324219 101.792969 C 225.265625 100.382812 224.949219 97.238281 224.953125 94.785156 C 217.464844 92.886719 208.894531 89.164062 208.011719 87.574219 C 205.644531 83.316406 210.089844 60.371094 212.816406 58.304688 "/>
</g>
</svg>
